<?xml version="1.0" encoding="UTF-8"?>
<svg id="Layer_1" data-name="Layer 1" xmlns="http://www.w3.org/2000/svg" viewBox="0 0 512 512">
  <path d="M202.8692819253,477.1112955665V192.6060395145h-18.8937950309v284.505256052h18.8937950309Z"/>
  <path d="M227.9003187193,477.1085542797v-188.6356049256h-18.8937740486v188.6356049256h18.8937740486Z"/>
  <path d="M252.9315128804,477.1058545276v-132.9704337755h-18.8940678003v132.9704337755h18.8940678003Z"/>
  <path d="M277.9624132897,477.1058545276v-132.9704337755h-18.8937740486v132.9704337755h18.8937740486Z"/>
  <path d="M302.993471066,477.1085542797v-188.6356049256h-18.8937950309v188.6356049256h18.8937950309Z"/>
  <path d="M328.0245183512,477.1112955665V192.6060395145h-18.8937950309v284.505256052h18.8937950309Z"/>
  <path d="M27.6519456834,474.0027594528V34.8887044335H8.7581611437v439.1140550192h18.8937845397Z"/>
  <path d="M52.6829929686,474.0027594528V34.8887044335h-18.8937845397v439.1140550192h18.8937845397Z"/>
  <path d="M77.7140402538,474.0027594528V34.8887044335h-18.8937845397v439.1140550192h18.8937845397Z"/>
  <path d="M453.1797442859,474.0027594528V34.8887044335h-18.8937740486v439.1140550192h18.8937740486Z"/>
  <path d="M478.2108125534,474.0027594528V34.8887044335h-18.8938160131v439.1140550192h18.8938160131Z"/>
  <path d="M503.2418388563,474.0027594528V34.8887044335h-18.8937740486v439.1140550192h18.8937740486Z"/>
  <path d="M177.8382346401,399.8006126694V115.2942974839h-18.8937950309v284.5063151855h18.8937950309Z"/>
  <path d="M353.0555761275,399.8006126694V115.2942974839h-18.8938160131v284.5063151855h18.8938160131Z"/>
  <path d="M152.8071821093,319.392317271V34.8887044335h-18.8937845397v284.5036128375h18.8937845397Z"/>
  <path d="M378.0866024304,319.392317271V34.8887044335h-18.8937740486v284.5036128375h18.8937740486Z"/>
  <path d="M127.7761348242,238.9853717487V34.8887044335h-18.8937845397v204.0966673152h18.8937845397Z"/>
  <path d="M403.1176706978,238.9853717487V34.8887044335h-18.8938160131v204.0966673152h18.8938160131Z"/>
  <path d="M102.745087539,136.9370367932V34.8887044335h-18.8937845397v102.0483323596h18.8937845397Z"/>
  <path d="M428.1486970008,136.9370367932V34.8887044335h-18.8937740486v102.0483323596h18.8937740486Z"/>
</svg>